<svg width="632" height="96" viewBox="0 0 632 96" fill="none" xmlns="http://www.w3.org/2000/svg">
<rect x="332" width="300" height="96" rx="25" fill="#131313"/>
<path d="M541.72 28.6178C541.267 29.0964 541 29.8396 541 30.8026V65.1966C541 66.1603 541.268 66.9027 541.72 67.3814L541.835 67.4935L561.102 48.2269V47.9997V47.7723L541.835 28.5049L541.72 28.6178Z" fill="url(#paint0_linear_160_65)"/>
<path d="M567.523 54.652L561.102 48.227V47.9998V47.7725L567.525 41.3491L567.67 41.4317L575.279 45.7552C577.452 46.99 577.452 49.0105 575.279 50.246L567.67 54.5695L567.523 54.652Z" fill="url(#paint1_linear_160_65)"/>
<path d="M567.67 54.5688L561.102 48L541.72 67.3817C542.436 68.1402 543.619 68.2341 544.952 67.4772L567.67 54.5688Z" fill="url(#paint2_linear_160_65)"/>
<path d="M567.67 41.4311L544.952 28.5227C543.619 27.7658 542.436 27.8598 541.72 28.6182L561.102 48.0001L567.67 41.4311Z" fill="url(#paint3_linear_160_65)"/>
<path d="M404.23 46.824V51.816C404.23 52.264 404.142 52.608 403.966 52.848C403.806 53.072 403.534 53.288 403.15 53.496C402.718 53.736 402.094 53.944 401.278 54.12C400.462 54.312 399.646 54.408 398.83 54.408C397.294 54.408 395.91 54.144 394.678 53.616C393.462 53.072 392.494 52.24 391.774 51.12C391.07 49.984 390.718 48.528 390.718 46.752C390.718 45.056 391.078 43.64 391.798 42.504C392.518 41.352 393.486 40.488 394.702 39.912C395.934 39.32 397.294 39.024 398.782 39.024C399.774 39.024 400.63 39.128 401.35 39.336C402.086 39.544 402.646 39.832 403.03 40.2C403.43 40.568 403.63 40.992 403.63 41.472C403.63 41.824 403.534 42.144 403.342 42.432C403.166 42.704 402.95 42.912 402.694 43.056C402.294 42.8 401.79 42.56 401.182 42.336C400.574 42.112 399.862 42 399.046 42C398.166 42 397.374 42.192 396.67 42.576C395.982 42.944 395.446 43.488 395.062 44.208C394.678 44.912 394.486 45.752 394.486 46.728C394.486 47.784 394.67 48.664 395.038 49.368C395.422 50.072 395.942 50.6 396.598 50.952C397.27 51.288 398.03 51.456 398.878 51.456C399.278 51.456 399.638 51.416 399.958 51.336C400.294 51.256 400.55 51.176 400.726 51.096V48.288H397.918C397.822 48.128 397.734 47.928 397.654 47.688C397.574 47.432 397.534 47.16 397.534 46.872C397.534 46.376 397.646 46.016 397.87 45.792C398.11 45.552 398.422 45.432 398.806 45.432H402.838C403.27 45.432 403.606 45.552 403.846 45.792C404.102 46.032 404.23 46.376 404.23 46.824ZM418.61 48.24C418.61 49.488 418.354 50.576 417.842 51.504C417.346 52.416 416.642 53.12 415.73 53.616C414.818 54.112 413.746 54.36 412.514 54.36C411.298 54.36 410.226 54.12 409.298 53.64C408.386 53.144 407.674 52.44 407.162 51.528C406.666 50.6 406.418 49.504 406.418 48.24C406.418 46.976 406.674 45.896 407.186 45C407.698 44.088 408.41 43.384 409.322 42.888C410.25 42.376 411.314 42.12 412.514 42.12C413.73 42.12 414.794 42.376 415.706 42.888C416.618 43.384 417.33 44.096 417.842 45.024C418.354 45.936 418.61 47.008 418.61 48.24ZM412.514 44.928C411.762 44.928 411.162 45.216 410.714 45.792C410.282 46.368 410.066 47.184 410.066 48.24C410.066 49.312 410.282 50.136 410.714 50.712C411.146 51.272 411.746 51.552 412.514 51.552C413.282 51.552 413.882 51.264 414.314 50.688C414.746 50.112 414.962 49.296 414.962 48.24C414.962 47.2 414.746 46.392 414.314 45.816C413.882 45.224 413.282 44.928 412.514 44.928ZM432.485 48.24C432.485 49.488 432.229 50.576 431.717 51.504C431.221 52.416 430.517 53.12 429.605 53.616C428.693 54.112 427.621 54.36 426.389 54.36C425.173 54.36 424.101 54.12 423.173 53.64C422.261 53.144 421.549 52.44 421.037 51.528C420.541 50.6 420.293 49.504 420.293 48.24C420.293 46.976 420.549 45.896 421.061 45C421.573 44.088 422.285 43.384 423.197 42.888C424.125 42.376 425.189 42.12 426.389 42.12C427.605 42.12 428.669 42.376 429.581 42.888C430.493 43.384 431.205 44.096 431.717 45.024C432.229 45.936 432.485 47.008 432.485 48.24ZM426.389 44.928C425.637 44.928 425.037 45.216 424.589 45.792C424.157 46.368 423.941 47.184 423.941 48.24C423.941 49.312 424.157 50.136 424.589 50.712C425.021 51.272 425.621 51.552 426.389 51.552C427.157 51.552 427.757 51.264 428.189 50.688C428.621 50.112 428.837 49.296 428.837 48.24C428.837 47.2 428.621 46.392 428.189 45.816C427.757 45.224 427.157 44.928 426.389 44.928ZM439.472 53.544C438.528 53.544 437.648 53.368 436.832 53.016C436.032 52.648 435.384 52.048 434.888 51.216C434.408 50.368 434.168 49.264 434.168 47.904C434.168 46.64 434.416 45.584 434.912 44.736C435.424 43.872 436.136 43.224 437.048 42.792C437.96 42.344 439.016 42.12 440.216 42.12C441.08 42.12 441.88 42.24 442.616 42.48C443.368 42.704 443.952 42.952 444.368 43.224C444.656 43.416 444.888 43.648 445.064 43.92C445.24 44.176 445.328 44.504 445.328 44.904V52.44H441.896V45.312C441.72 45.216 441.504 45.128 441.248 45.048C441.008 44.968 440.704 44.928 440.336 44.928C439.568 44.928 438.936 45.168 438.44 45.648C437.96 46.128 437.72 46.88 437.72 47.904C437.72 49.024 437.944 49.8 438.392 50.232C438.856 50.648 439.432 50.856 440.12 50.856C440.648 50.856 441.088 50.768 441.44 50.592C441.792 50.4 442.096 50.192 442.352 49.968L442.448 52.8C442.112 53.008 441.704 53.184 441.224 53.328C440.744 53.472 440.16 53.544 439.472 53.544ZM441.968 53.88V51.648H445.328V53.976C445.328 55.096 445.064 56.008 444.536 56.712C444.024 57.416 443.32 57.936 442.424 58.272C441.544 58.608 440.552 58.776 439.448 58.776C438.616 58.776 437.872 58.704 437.216 58.56C436.576 58.416 436.088 58.232 435.752 58.008C435.208 57.656 434.936 57.16 434.936 56.52C434.936 56.184 435 55.88 435.128 55.608C435.272 55.352 435.44 55.16 435.632 55.032C436.064 55.288 436.576 55.504 437.168 55.68C437.76 55.872 438.384 55.968 439.04 55.968C439.936 55.968 440.648 55.8 441.176 55.464C441.704 55.144 441.968 54.616 441.968 53.88ZM448.223 47.664L451.799 47.736V53.976C451.639 54.024 451.415 54.064 451.127 54.096C450.839 54.144 450.527 54.168 450.191 54.168C449.519 54.168 449.023 54.048 448.703 53.808C448.383 53.568 448.223 53.136 448.223 52.512V47.664ZM451.799 49.584L448.223 49.512V38.376C448.383 38.328 448.607 38.28 448.895 38.232C449.183 38.184 449.495 38.16 449.831 38.16C450.519 38.16 451.015 38.28 451.319 38.52C451.639 38.76 451.799 39.2 451.799 39.84V49.584ZM456.368 49.92L456.224 47.52L462.176 46.584C462.144 46.136 461.952 45.72 461.6 45.336C461.248 44.952 460.728 44.76 460.04 44.76C459.32 44.76 458.72 45.008 458.24 45.504C457.76 45.984 457.504 46.672 457.472 47.568L457.592 49.224C457.736 50.104 458.112 50.736 458.72 51.12C459.328 51.488 460.048 51.672 460.88 51.672C461.552 51.672 462.184 51.576 462.776 51.384C463.368 51.192 463.848 50.992 464.216 50.784C464.456 50.928 464.648 51.128 464.792 51.384C464.952 51.64 465.032 51.912 465.032 52.2C465.032 52.68 464.84 53.08 464.456 53.4C464.088 53.72 463.568 53.96 462.896 54.12C462.24 54.28 461.488 54.36 460.64 54.36C459.408 54.36 458.296 54.128 457.304 53.664C456.328 53.2 455.56 52.504 455 51.576C454.44 50.648 454.16 49.488 454.16 48.096C454.16 47.072 454.32 46.184 454.64 45.432C454.976 44.68 455.416 44.064 455.96 43.584C456.52 43.088 457.144 42.72 457.832 42.48C458.536 42.24 459.264 42.12 460.016 42.12C461.12 42.12 462.08 42.344 462.896 42.792C463.728 43.224 464.376 43.816 464.84 44.568C465.304 45.32 465.536 46.192 465.536 47.184C465.536 47.68 465.4 48.056 465.128 48.312C464.856 48.568 464.48 48.728 464 48.792L456.368 49.92ZM476.461 46.44H477.901C478.717 46.44 479.357 46.248 479.821 45.864C480.301 45.48 480.541 44.928 480.541 44.208C480.541 43.488 480.317 42.944 479.869 42.576C479.421 42.208 478.773 42.024 477.925 42.024C477.637 42.024 477.373 42.032 477.133 42.048C476.909 42.064 476.685 42.088 476.461 42.12V46.44ZM478.141 49.32H472.837V40.728C472.837 40.424 472.925 40.184 473.101 40.008C473.277 39.832 473.509 39.696 473.797 39.6C474.325 39.408 474.957 39.272 475.693 39.192C476.429 39.112 477.093 39.072 477.685 39.072C479.845 39.072 481.477 39.536 482.581 40.464C483.701 41.376 484.261 42.624 484.261 44.208C484.261 45.232 484.013 46.128 483.517 46.896C483.037 47.664 482.341 48.264 481.429 48.696C480.517 49.112 479.421 49.32 478.141 49.32ZM472.837 47.712H476.485V53.976C476.341 54.024 476.109 54.064 475.789 54.096C475.469 54.144 475.141 54.168 474.805 54.168C474.085 54.168 473.573 54.04 473.269 53.784C472.981 53.528 472.837 53.08 472.837 52.44V47.712ZM486.52 47.664L490.096 47.736V53.976C489.936 54.024 489.712 54.064 489.424 54.096C489.136 54.144 488.824 54.168 488.488 54.168C487.816 54.168 487.32 54.048 487 53.808C486.68 53.568 486.52 53.136 486.52 52.512V47.664ZM490.096 49.584L486.52 49.512V38.376C486.68 38.328 486.904 38.28 487.192 38.232C487.48 38.184 487.792 38.16 488.128 38.16C488.816 38.16 489.312 38.28 489.616 38.52C489.936 38.76 490.096 39.2 490.096 39.84V49.584ZM497.737 51.72C498.105 51.72 498.465 51.688 498.817 51.624C499.185 51.544 499.449 51.456 499.609 51.36V49.056L497.593 49.248C497.049 49.28 496.617 49.392 496.297 49.584C495.977 49.776 495.817 50.064 495.817 50.448C495.817 50.832 495.969 51.144 496.273 51.384C496.577 51.608 497.065 51.72 497.737 51.72ZM497.593 42.12C499.257 42.12 500.585 42.472 501.577 43.176C502.569 43.864 503.065 44.936 503.065 46.392V51.84C503.065 52.24 502.961 52.568 502.753 52.824C502.545 53.064 502.281 53.272 501.961 53.448C501.481 53.736 500.881 53.96 500.161 54.12C499.457 54.296 498.649 54.384 497.737 54.384C496.105 54.384 494.801 54.064 493.825 53.424C492.865 52.784 492.385 51.832 492.385 50.568C492.385 49.48 492.721 48.648 493.393 48.072C494.065 47.48 495.065 47.12 496.393 46.992L499.585 46.656V46.368C499.585 45.824 499.369 45.432 498.937 45.192C498.521 44.952 497.921 44.832 497.137 44.832C496.529 44.832 495.929 44.904 495.337 45.048C494.761 45.192 494.241 45.36 493.777 45.552C493.585 45.424 493.417 45.232 493.273 44.976C493.145 44.704 493.081 44.424 493.081 44.136C493.081 43.464 493.449 42.976 494.185 42.672C494.649 42.48 495.185 42.344 495.793 42.264C496.417 42.168 497.017 42.12 497.593 42.12ZM507.445 51.144C507.189 50.616 506.909 49.976 506.605 49.224C506.317 48.472 506.013 47.584 505.693 46.56C505.373 45.536 505.029 44.352 504.661 43.008C504.869 42.8 505.133 42.624 505.453 42.48C505.789 42.32 506.149 42.24 506.533 42.24C507.029 42.24 507.437 42.344 507.757 42.552C508.077 42.76 508.317 43.152 508.477 43.728C508.845 44.896 509.213 46.056 509.581 47.208C509.949 48.36 510.325 49.52 510.709 50.688H510.805C511.077 49.968 511.349 49.152 511.621 48.24C511.909 47.328 512.173 46.392 512.413 45.432C512.653 44.456 512.861 43.52 513.037 42.624C513.261 42.512 513.501 42.424 513.757 42.36C514.013 42.28 514.277 42.24 514.549 42.24C515.045 42.24 515.469 42.352 515.821 42.576C516.189 42.784 516.373 43.144 516.373 43.656C516.373 44.104 516.301 44.656 516.157 45.312C516.029 45.968 515.853 46.68 515.629 47.448C515.405 48.2 515.141 48.976 514.837 49.776C514.533 50.56 514.213 51.32 513.877 52.056C513.557 52.792 513.229 53.456 512.893 54.048C512.029 55.552 511.229 56.672 510.493 57.408C509.773 58.16 509.053 58.536 508.333 58.536C507.757 58.536 507.277 58.36 506.893 58.008C506.525 57.656 506.301 57.208 506.221 56.664C506.573 56.376 506.933 56.04 507.301 55.656C507.669 55.288 508.021 54.888 508.357 54.456C508.693 54.04 508.989 53.624 509.245 53.208C508.973 53.128 508.693 52.952 508.405 52.68C508.117 52.408 507.797 51.896 507.445 51.144Z" fill="#F0F0F0"/>
<rect width="300" height="96" rx="25" fill="#131313"/>
<path d="M63.1694 42.48H63.0254C62.8654 42.992 62.6734 43.56 62.4494 44.184C62.2414 44.808 62.0254 45.464 61.8014 46.152C61.5774 46.824 61.3614 47.496 61.1534 48.168L60.7214 50.328C60.6254 50.632 60.5294 50.952 60.4334 51.288C60.3534 51.624 60.2654 51.952 60.1694 52.272C60.0734 52.592 59.9854 52.896 59.9054 53.184C59.8254 53.472 59.7454 53.744 59.6654 54C59.4894 54.048 59.2894 54.096 59.0654 54.144C58.8414 54.208 58.5774 54.24 58.2734 54.24C57.6014 54.24 57.0894 54.12 56.7374 53.88C56.3854 53.64 56.2094 53.288 56.2094 52.824C56.2094 52.632 56.2334 52.432 56.2814 52.224C56.3454 52.016 56.4174 51.776 56.4974 51.504C56.6414 50.976 56.8414 50.312 57.0974 49.512C57.3694 48.712 57.6574 47.848 57.9614 46.92C58.2814 45.976 58.6014 45.048 58.9214 44.136C59.2574 43.224 59.5614 42.384 59.8334 41.616C60.1214 40.848 60.3534 40.248 60.5294 39.816C60.7534 39.672 61.1054 39.544 61.5854 39.432C62.0814 39.304 62.5694 39.24 63.0494 39.24C63.7374 39.24 64.3534 39.344 64.8974 39.552C65.4414 39.744 65.7854 40.056 65.9294 40.488C66.2334 41.336 66.5614 42.32 66.9134 43.44C67.2814 44.544 67.6494 45.704 68.0174 46.92C68.3854 48.136 68.7374 49.32 69.0734 50.472C69.4254 51.608 69.7294 52.632 69.9854 53.544C69.8094 53.736 69.5534 53.896 69.2174 54.024C68.8814 54.168 68.4814 54.24 68.0174 54.24C67.3614 54.24 66.8974 54.12 66.6254 53.88C66.3534 53.64 66.1454 53.28 66.0014 52.8L65.2334 50.112L64.8254 48.072C64.6334 47.352 64.4334 46.656 64.2254 45.984C64.0174 45.312 63.8254 44.68 63.6494 44.088C63.4734 43.48 63.3134 42.944 63.1694 42.48ZM59.1134 50.76L60.5294 47.928H66.1454L66.6254 50.76H59.1134ZM77.5728 54.36C78.6928 54.36 79.6928 54.128 80.5728 53.664C81.4528 53.184 82.1488 52.488 82.6608 51.576C83.1728 50.664 83.4288 49.528 83.4288 48.168C83.4288 46.76 83.1648 45.616 82.6368 44.736C82.1088 43.84 81.3648 43.184 80.4048 42.768C79.4608 42.336 78.3728 42.12 77.1408 42.12C76.2288 42.12 75.4048 42.224 74.6688 42.432C73.9328 42.624 73.3248 42.872 72.8448 43.176C72.5088 43.384 72.2608 43.624 72.1008 43.896C71.9408 44.152 71.8608 44.48 71.8608 44.88V52.728H75.3888V45.384C75.5968 45.256 75.8448 45.152 76.1328 45.072C76.4368 44.976 76.7728 44.928 77.1408 44.928C77.6848 44.928 78.1568 45.04 78.5568 45.264C78.9568 45.488 79.2608 45.84 79.4688 46.32C79.6928 46.784 79.8048 47.4 79.8048 48.168C79.8048 49.288 79.5568 50.128 79.0608 50.688C78.5808 51.248 77.9008 51.528 77.0208 51.528C76.5248 51.528 76.0768 51.432 75.6768 51.24C75.2928 51.048 74.9648 50.84 74.6928 50.616V53.616C75.0448 53.808 75.4608 53.976 75.9408 54.12C76.4208 54.28 76.9648 54.36 77.5728 54.36ZM75.4128 51.816H71.8608V56.808C71.8608 57.448 72.0128 57.888 72.3168 58.128C72.6368 58.368 73.1328 58.488 73.8048 58.488C74.1408 58.488 74.4528 58.464 74.7408 58.416C75.0288 58.368 75.2528 58.32 75.4128 58.272V51.816ZM91.4009 54.36C92.5209 54.36 93.5209 54.128 94.4009 53.664C95.2809 53.184 95.9769 52.488 96.4889 51.576C97.0009 50.664 97.2569 49.528 97.2569 48.168C97.2569 46.76 96.9929 45.616 96.4649 44.736C95.9369 43.84 95.1929 43.184 94.2329 42.768C93.2889 42.336 92.2009 42.12 90.9689 42.12C90.0569 42.12 89.2329 42.224 88.4969 42.432C87.7609 42.624 87.1529 42.872 86.6729 43.176C86.3369 43.384 86.0889 43.624 85.9289 43.896C85.7689 44.152 85.6889 44.48 85.6889 44.88V52.728H89.2169V45.384C89.4249 45.256 89.6729 45.152 89.9609 45.072C90.2649 44.976 90.6009 44.928 90.9689 44.928C91.5129 44.928 91.9849 45.04 92.3849 45.264C92.7849 45.488 93.0889 45.84 93.2969 46.32C93.5209 46.784 93.6329 47.4 93.6329 48.168C93.6329 49.288 93.3849 50.128 92.8889 50.688C92.4089 51.248 91.7289 51.528 90.8489 51.528C90.3529 51.528 89.9049 51.432 89.5049 51.24C89.1209 51.048 88.7929 50.84 88.5209 50.616V53.616C88.8729 53.808 89.2889 53.976 89.7689 54.12C90.2489 54.28 90.7929 54.36 91.4009 54.36ZM89.2409 51.816H85.6889V56.808C85.6889 57.448 85.8409 57.888 86.1449 58.128C86.4649 58.368 86.9609 58.488 87.6329 58.488C87.9689 58.488 88.2809 58.464 88.5689 58.416C88.8569 58.368 89.0809 58.32 89.2409 58.272V51.816ZM99.637 47.664L103.213 47.736V53.976C103.053 54.024 102.829 54.064 102.541 54.096C102.253 54.144 101.941 54.168 101.605 54.168C100.933 54.168 100.437 54.048 100.117 53.808C99.797 53.568 99.637 53.136 99.637 52.512V47.664ZM103.213 49.584L99.637 49.512V38.376C99.797 38.328 100.021 38.28 100.309 38.232C100.597 38.184 100.909 38.16 101.245 38.16C101.933 38.16 102.429 38.28 102.733 38.52C103.053 38.76 103.213 39.2 103.213 39.84V49.584ZM107.782 49.92L107.638 47.52L113.59 46.584C113.558 46.136 113.366 45.72 113.014 45.336C112.662 44.952 112.142 44.76 111.454 44.76C110.734 44.76 110.134 45.008 109.654 45.504C109.174 45.984 108.918 46.672 108.886 47.568L109.006 49.224C109.15 50.104 109.526 50.736 110.134 51.12C110.742 51.488 111.462 51.672 112.294 51.672C112.966 51.672 113.598 51.576 114.19 51.384C114.782 51.192 115.262 50.992 115.63 50.784C115.87 50.928 116.062 51.128 116.206 51.384C116.366 51.64 116.446 51.912 116.446 52.2C116.446 52.68 116.254 53.08 115.87 53.4C115.502 53.72 114.982 53.96 114.31 54.12C113.654 54.28 112.902 54.36 112.054 54.36C110.822 54.36 109.71 54.128 108.718 53.664C107.742 53.2 106.974 52.504 106.414 51.576C105.854 50.648 105.574 49.488 105.574 48.096C105.574 47.072 105.734 46.184 106.054 45.432C106.39 44.68 106.83 44.064 107.374 43.584C107.934 43.088 108.558 42.72 109.246 42.48C109.95 42.24 110.678 42.12 111.43 42.12C112.534 42.12 113.494 42.344 114.31 42.792C115.142 43.224 115.79 43.816 116.254 44.568C116.718 45.32 116.95 46.192 116.95 47.184C116.95 47.68 116.814 48.056 116.542 48.312C116.27 48.568 115.894 48.728 115.414 48.792L107.782 49.92ZM128.595 51.432C129.459 51.432 130.075 51.28 130.443 50.976C130.827 50.656 131.019 50.28 131.019 49.848C131.019 49.448 130.867 49.128 130.563 48.888C130.275 48.648 129.843 48.432 129.267 48.24L127.995 47.832C127.131 47.544 126.363 47.224 125.691 46.872C125.035 46.52 124.523 46.064 124.155 45.504C123.803 44.944 123.627 44.232 123.627 43.368C123.627 42.04 124.131 40.984 125.139 40.2C126.147 39.416 127.547 39.024 129.339 39.024C130.251 39.024 131.059 39.112 131.763 39.288C132.483 39.464 133.043 39.728 133.443 40.08C133.859 40.416 134.067 40.832 134.067 41.328C134.067 41.696 133.979 42.016 133.803 42.288C133.643 42.544 133.435 42.768 133.179 42.96C132.811 42.704 132.323 42.488 131.715 42.312C131.107 42.12 130.435 42.024 129.699 42.024C128.931 42.024 128.355 42.152 127.971 42.408C127.587 42.648 127.395 42.968 127.395 43.368C127.395 43.688 127.523 43.952 127.779 44.16C128.035 44.352 128.419 44.528 128.931 44.688L130.251 45.096C131.707 45.544 132.827 46.144 133.611 46.896C134.395 47.632 134.787 48.624 134.787 49.872C134.787 51.216 134.267 52.312 133.227 53.16C132.187 53.992 130.683 54.408 128.715 54.408C127.739 54.408 126.867 54.304 126.099 54.096C125.331 53.888 124.715 53.584 124.251 53.184C123.803 52.784 123.579 52.32 123.579 51.792C123.579 51.376 123.699 51.024 123.939 50.736C124.195 50.432 124.475 50.208 124.779 50.064C125.211 50.416 125.747 50.736 126.387 51.024C127.043 51.296 127.779 51.432 128.595 51.432ZM137.018 47.664H140.546V50.232C140.546 50.68 140.69 51.008 140.978 51.216C141.266 51.424 141.674 51.528 142.202 51.528C142.442 51.528 142.698 51.504 142.97 51.456C143.258 51.392 143.498 51.32 143.69 51.24C143.818 51.384 143.93 51.56 144.026 51.768C144.138 51.976 144.194 52.216 144.194 52.488C144.194 53.032 143.97 53.48 143.522 53.832C143.074 54.184 142.322 54.36 141.266 54.36C139.922 54.36 138.874 54.056 138.122 53.448C137.386 52.84 137.018 51.848 137.018 50.472V47.664ZM139.274 45.48V42.744H143.882C143.962 42.872 144.042 43.056 144.122 43.296C144.202 43.536 144.242 43.8 144.242 44.088C144.242 44.568 144.13 44.92 143.906 45.144C143.698 45.368 143.41 45.48 143.042 45.48H139.274ZM140.546 48.264H137.018V39.648C137.178 39.6 137.402 39.552 137.69 39.504C137.978 39.44 138.282 39.408 138.602 39.408C139.29 39.408 139.786 39.528 140.09 39.768C140.394 40.008 140.546 40.448 140.546 41.088V48.264ZM157.845 48.24C157.845 49.488 157.589 50.576 157.077 51.504C156.581 52.416 155.877 53.12 154.965 53.616C154.053 54.112 152.981 54.36 151.749 54.36C150.533 54.36 149.461 54.12 148.533 53.64C147.621 53.144 146.909 52.44 146.396 51.528C145.9 50.6 145.653 49.504 145.653 48.24C145.653 46.976 145.909 45.896 146.421 45C146.933 44.088 147.645 43.384 148.557 42.888C149.485 42.376 150.549 42.12 151.749 42.12C152.965 42.12 154.029 42.376 154.941 42.888C155.853 43.384 156.565 44.096 157.077 45.024C157.589 45.936 157.845 47.008 157.845 48.24ZM151.749 44.928C150.997 44.928 150.397 45.216 149.949 45.792C149.517 46.368 149.301 47.184 149.301 48.24C149.301 49.312 149.517 50.136 149.949 50.712C150.381 51.272 150.981 51.552 151.749 51.552C152.517 51.552 153.117 51.264 153.549 50.688C153.981 50.112 154.197 49.296 154.197 48.24C154.197 47.2 153.981 46.392 153.549 45.816C153.117 45.224 152.517 44.928 151.749 44.928ZM163.632 45.576V48.576H160.08V45.144C160.08 44.696 160.184 44.32 160.392 44.016C160.616 43.696 160.92 43.416 161.304 43.176C161.832 42.856 162.464 42.608 163.2 42.432C163.952 42.24 164.736 42.144 165.552 42.144C167.184 42.144 168 42.688 168 43.776C168 44.032 167.96 44.272 167.88 44.496C167.816 44.72 167.736 44.912 167.64 45.072C167.48 45.04 167.28 45.016 167.04 45C166.816 44.968 166.568 44.952 166.296 44.952C165.816 44.952 165.336 45.008 164.855 45.12C164.376 45.232 163.968 45.384 163.632 45.576ZM160.08 47.664L163.632 47.736V53.976C163.472 54.024 163.248 54.064 162.96 54.096C162.672 54.144 162.36 54.168 162.024 54.168C161.352 54.168 160.856 54.048 160.536 53.808C160.232 53.568 160.08 53.136 160.08 52.512V47.664ZM171.04 49.92L170.896 47.52L176.848 46.584C176.816 46.136 176.624 45.72 176.272 45.336C175.92 44.952 175.4 44.76 174.712 44.76C173.992 44.76 173.392 45.008 172.912 45.504C172.432 45.984 172.176 46.672 172.144 47.568L172.264 49.224C172.408 50.104 172.784 50.736 173.392 51.12C174 51.488 174.72 51.672 175.552 51.672C176.224 51.672 176.856 51.576 177.448 51.384C178.04 51.192 178.52 50.992 178.888 50.784C179.128 50.928 179.32 51.128 179.464 51.384C179.624 51.64 179.704 51.912 179.704 52.2C179.704 52.68 179.512 53.08 179.128 53.4C178.76 53.72 178.24 53.96 177.568 54.12C176.912 54.28 176.16 54.36 175.312 54.36C174.08 54.36 172.968 54.128 171.976 53.664C171 53.2 170.232 52.504 169.672 51.576C169.112 50.648 168.832 49.488 168.832 48.096C168.832 47.072 168.992 46.184 169.312 45.432C169.648 44.68 170.088 44.064 170.632 43.584C171.192 43.088 171.816 42.72 172.504 42.48C173.208 42.24 173.936 42.12 174.688 42.12C175.792 42.12 176.752 42.344 177.568 42.792C178.4 43.224 179.048 43.816 179.512 44.568C179.976 45.32 180.208 46.192 180.208 47.184C180.208 47.68 180.072 48.056 179.8 48.312C179.528 48.568 179.152 48.728 178.672 48.792L171.04 49.92Z" fill="#F0F0F0"/>
<path d="M236.92 29H213.08C208.615 29 205 32.615 205 37.08V60.925C205 65.385 208.615 69 213.08 69H236.925C241.385 69 245.005 65.385 245.005 60.92V37.08C245 32.615 241.385 29 236.92 29Z" fill="url(#paint4_linear_160_65)"/>
<path d="M224.83 38.1901L225.64 36.7901C226.14 35.915 227.255 35.6201 228.13 36.1201C229.005 36.6201 229.3 37.735 228.8 38.6101L220.995 52.1201H226.64C228.47 52.1201 229.495 54.2702 228.7 55.7601H212.15C211.14 55.7601 210.33 54.9501 210.33 53.9401C210.33 52.9301 211.14 52.1201 212.15 52.1201H216.79L222.73 41.8251L220.875 38.6051C220.375 37.73 220.67 36.6251 221.545 36.1151C222.42 35.6151 223.525 35.91 224.035 36.7851L224.83 38.1901Z" fill="white"/>
<path d="M217.81 57.6349L216.06 60.6699C215.56 61.5449 214.445 61.8399 213.57 61.3399C212.695 60.8399 212.4 59.725 212.9 58.8499L214.2 56.6C215.67 56.145 216.865 56.4949 217.81 57.6349Z" fill="white"/>
<path d="M232.88 52.13H237.615C238.625 52.13 239.435 52.94 239.435 53.95C239.435 54.9599 238.625 55.77 237.615 55.77H234.985L236.76 58.8499C237.26 59.725 236.965 60.83 236.09 61.3399C235.215 61.8399 234.11 61.545 233.6 60.6699C230.61 55.4849 228.365 51.605 226.875 49.02C225.35 46.39 226.44 43.7499 227.515 42.855C228.71 44.905 230.495 48 232.88 52.13Z" fill="white"/>
<defs>
<linearGradient id="paint0_linear_160_65" x1="559.393" y1="30.44" x2="533.294" y2="56.5392" gradientUnits="userSpaceOnUse">
<stop stop-color="#00A0FF"/>
<stop offset="0.0066" stop-color="#00A2FF"/>
<stop offset="0.2601" stop-color="#00BEFF"/>
<stop offset="0.5122" stop-color="#00D2FF"/>
<stop offset="0.7604" stop-color="#00DFFF"/>
<stop offset="1" stop-color="#00E3FF"/>
</linearGradient>
<linearGradient id="paint1_linear_160_65" x1="578.109" y1="48.0005" x2="540.479" y2="48.0005" gradientUnits="userSpaceOnUse">
<stop stop-color="#FFE000"/>
<stop offset="0.4087" stop-color="#FFBD00"/>
<stop offset="0.7754" stop-color="#FFA600"/>
<stop offset="1" stop-color="#FF9C00"/>
</linearGradient>
<linearGradient id="paint2_linear_160_65" x1="564.101" y1="51.5693" x2="528.708" y2="86.9619" gradientUnits="userSpaceOnUse">
<stop stop-color="#FF3743"/>
<stop offset="1" stop-color="#E30864"/>
</linearGradient>
<linearGradient id="paint3_linear_160_65" x1="536.84" y1="17.1694" x2="552.644" y2="32.9738" gradientUnits="userSpaceOnUse">
<stop stop-color="#00A06F"/>
<stop offset="0.0685" stop-color="#00A86E"/>
<stop offset="0.4762" stop-color="#00CF6E"/>
<stop offset="0.8009" stop-color="#00E76D"/>
<stop offset="1" stop-color="#00EF6D"/>
</linearGradient>
<linearGradient id="paint4_linear_160_65" x1="225.003" y1="29" x2="225.003" y2="69" gradientUnits="userSpaceOnUse">
<stop stop-color="#00BFFC"/>
<stop offset="1" stop-color="#0073F6"/>
</linearGradient>
</defs>
</svg>
