<svg width="24" height="24" viewBox="0 0 24 24" fill="none" xmlns="http://www.w3.org/2000/svg">
<path d="M12 1.52588e-05C5.37282 1.52588e-05 1.52588e-05 5.37282 1.52588e-05 12C1.52588e-05 18.6272 5.37282 24 12 24C18.6272 24 24 18.6277 24 12C24 5.37236 18.6277 1.52588e-05 12 1.52588e-05ZM21.4856 10.7813H17.85C17.7139 8.94409 17.2573 7.14492 16.5009 5.46517C16.1051 4.5831 15.6298 3.73885 15.0811 2.94283C16.7738 3.52139 18.2708 4.56219 19.4027 5.94747C20.5346 7.33274 21.2561 9.00717 21.4856 10.7813ZM12 21.0333C10.0495 18.8656 8.85513 16.1234 8.59642 13.2188H15.4036C15.273 14.7107 14.8927 16.17 14.2786 17.5359C13.7058 18.8132 12.937 19.9932 12 21.0333ZM8.59642 10.7813C8.85513 7.87675 10.0493 5.1346 11.9995 2.96673C12.9365 4.00757 13.7051 5.18836 14.2777 6.46642C14.8915 7.83241 15.2718 9.29174 15.4027 10.7836L8.59642 10.7813ZM5.23829 5.23829C6.27199 4.19976 7.53137 3.41375 8.91845 2.94142C8.37606 3.72812 7.90542 4.56193 7.5122 5.43282C6.74749 7.12118 6.28607 8.931 6.14907 10.7794H2.51439C2.77937 8.68038 3.7381 6.73009 5.23829 5.23829ZM2.51439 13.2188H6.15001C6.28628 15.0559 6.74301 16.8551 7.49954 18.5348C7.89542 19.4169 8.37066 20.2612 8.91938 21.0572C7.2265 20.4788 5.72934 19.438 4.59738 18.0528C3.46542 16.6675 2.74386 14.9929 2.51439 13.2188ZM18.7617 18.7617C17.7278 19.8004 16.4681 20.5864 15.0806 21.0586C15.6297 20.2627 16.1051 19.4184 16.5009 18.5363C17.2573 16.8565 17.7139 15.0573 17.85 13.2202H21.4856C21.2208 15.3194 20.2621 17.2699 18.7617 18.7617Z" fill="#F9973E"/>
</svg>
