<svg width="263" height="23" viewBox="0 0 263 23" fill="none" xmlns="http://www.w3.org/2000/svg">
<path d="M260.925 1.832L261.383 3.59702H252.206V10.7378H260.04V12.5043H252.206V19.9029H262.042L261.558 21.7515H250.264V1.832H260.925V1.832ZM248.204 1.80356V3.65215H242.83V21.6947L240.829 21.9809V3.62524H235.196L235.711 1.80356H248.204ZM237.942 21.4954L235.912 21.953L231.965 13.7837H223.416L219.357 21.953L217.443 21.4402L227.762 1.06455L237.942 21.4954ZM224.274 12.0201H231.108L227.735 5.10313L224.274 12.0201ZM220.214 1.80356V3.65215H214.838V21.6947L212.836 21.9809V3.62524H207.206L207.721 1.80356H220.214ZM204.89 5.3023C204.433 4.81926 203.918 4.30788 203.376 3.96508C203.003 3.73843 202.117 3.25397 200.859 3.25397C199.457 3.25397 198.085 3.90983 197.398 5.13231C197.115 5.61677 196.944 6.21456 196.944 6.78401C196.944 8.03624 197.744 9.2318 198.855 9.82817C199.516 10.1696 200.488 10.3707 201.172 10.5974C202.546 10.9954 204.204 11.6215 205.234 12.674C205.748 13.1854 206.692 14.4674 206.692 16.4874C206.664 17.2551 206.548 19.0202 205.034 20.4721C204.375 21.1535 202.944 22.2626 200.6 22.2626C198.972 22.2626 197.229 21.6946 195.971 20.6421C195.283 20.0726 194.826 19.4182 194.281 18.6773L195.855 17.4535C195.941 17.5696 196.341 18.2524 196.742 18.7071C198.027 20.2143 199.799 20.329 200.488 20.329C201.172 20.329 203.003 20.2441 204.033 18.4493C204.234 18.1391 204.575 17.4832 204.575 16.5157C204.575 16.0879 204.518 15.2068 203.832 14.381C202.688 12.9587 200.829 12.7052 199.2 12.191C198.571 11.9927 198 11.7632 197.398 11.4218C195.169 10.0846 194.855 7.97957 194.855 7.01207C194.855 6.55736 194.883 5.73151 195.342 4.73426C195.884 3.51178 197.456 1.31897 200.888 1.31897C202.944 1.31897 204.262 2.08815 204.89 2.54428C205.49 2.96924 206.176 3.70868 206.292 3.82484L204.89 5.3023V5.3023ZM191.853 1.83204L192.31 3.59706H183.133V10.7379H190.965V12.5043H183.133V19.9029H192.967L192.48 21.7515H181.187V1.83204H191.853V1.83204ZM162.347 1.66162V19.9592H170.867L170.323 21.8092H160.345V1.94493L162.347 1.66162ZM158.145 21.4954L156.115 21.953L152.17 13.7837H143.621L139.562 21.953L137.646 21.4402L147.966 1.06455L158.145 21.4954ZM144.477 12.0201H151.31L147.937 5.10313L144.477 12.0201ZM136.472 1.83204L136.929 3.59706H127.752V10.7379H135.587V12.5043H127.752V19.9029H137.588L137.103 21.7515H125.81V1.83204H136.472V1.83204ZM115.2 1.71773C117.29 1.94579 118.146 2.17386 119.03 2.74331C119.945 3.31135 121.635 4.79164 121.635 7.69414C121.635 8.63473 121.405 11.3361 118.832 12.7045C117.916 13.1861 116.773 13.4142 116.515 13.5006L123.179 21.2661L121.206 22.1217L112.912 12.0769V21.5522L110.971 21.8653V1.71773H115.2V1.71773ZM112.886 11.9339C113.4 11.9339 113.942 11.9622 114.487 11.9622C116.058 11.9622 117.46 11.7639 118.576 10.54C119.261 9.77081 119.605 8.74806 119.605 7.72248C119.605 6.21385 118.918 4.8483 117.574 4.10744C116.259 3.39775 114.342 3.48275 112.886 3.51108V11.9339V11.9339ZM82.4277 22.0084L75.7928 12.1039V21.4672L72.8211 21.837V1.74606C74.1362 1.71773 75.4213 1.65971 76.7662 1.65971C77.1946 1.65971 78.4243 1.63421 79.6539 1.97418C82.1958 2.71362 84.0004 4.84836 84.0004 7.60779C84.0004 8.46197 83.7997 10.625 81.7105 12.0203C81.0259 12.5034 80.3968 12.7045 79.6255 13.0162C80.1947 13.7839 80.7967 14.5517 81.3404 15.3478C81.941 16.2034 82.5416 17.0859 83.1408 17.9656C83.8851 19.0762 84.685 20.1287 85.4563 21.2109L82.4277 22.0084V22.0084ZM75.7657 11.2794C77.3953 11.3078 78.9124 11.3078 80.0809 10.0555C80.9419 9.14469 80.9675 8.06387 80.9675 7.63607C80.9675 7.0397 80.8835 5.58916 79.3679 4.73498C78.2791 4.13719 77.0523 4.22219 75.7657 4.27885V11.2794V11.2794ZM68.5035 1.66007L69.1881 4.39259H60.3827V9.97096H67.5301V12.6185H60.3827V18.8782H69.9623L69.0742 21.6377H57.3243V1.66007H68.5035V1.66007ZM46.0595 1.46175V18.8782H55.4668L54.3781 21.6674H43.028V1.91788L46.0595 1.46175V1.46175ZM29.0475 1.69025C29.5043 1.69025 29.964 1.71722 30.4208 1.74691C31.3061 1.8319 33.0794 2.03164 34.9936 3.25412C36.5677 4.22304 39.5692 6.72749 39.5692 11.6783C39.5692 13.3555 39.2547 14.4094 38.9971 15.0639C38.0535 17.7667 35.8233 20.0161 33.1079 21.012C31.7644 21.495 30.6215 21.5814 29.1627 21.6381H23.9296V1.69025H29.0475V1.69025ZM26.8486 18.992C27.5033 19.0203 28.1893 19.0203 28.8496 18.992C30.1334 18.9353 33.1079 18.7342 35.1943 15.775C35.6241 15.1772 36.5378 13.67 36.5378 11.5919C36.5378 9.25887 35.3096 6.86773 33.3669 5.58859C31.3929 4.2797 29.1627 4.2797 26.8486 4.33494V18.992ZM16.9263 11.2797L22.0441 21.4675L18.9843 22.207L15.4661 15.1497H7.14746L3.63072 22.207L0.770081 21.4406L11.4356 0.693848L16.9263 11.2797ZM8.40557 12.4455H14.1525L11.3502 6.32887L8.40557 12.4455V12.4455Z" fill="#F0F0F0"/>
</svg>
